<?xml version="1.0" standalone="no"?><!DOCTYPE svg PUBLIC "-//W3C//DTD SVG 1.1//EN" "http://www.w3.org/Graphics/SVG/1.1/DTD/svg11.dtd"><svg t="1704162843890" class="icon" viewBox="0 0 1024 1024" version="1.1" xmlns="http://www.w3.org/2000/svg" p-id="1672" xmlns:xlink="http://www.w3.org/1999/xlink" width="16" height="16"><path d="M431.592369 539.096615c49.309538 28.451446 73.948554 42.677169 101.013662 42.692923 27.065108 0.031508 51.751385-14.162708 101.092431-42.535384L948.224 358.478769a45.764923 45.764923 0 0 0 0-79.352123L633.588185 98.240985c-49.309538-28.341169-73.948554-42.503877-100.982154-42.503877-27.049354 0.015754-51.672615 14.209969-100.950646 42.582646l-270.493539 155.774031-3.938461 2.268553A303.686892 303.686892 0 0 0 6.931692 516.285046v9.089969a303.686892 303.686892 0 0 0 149.976616 259.749416l3.938461 2.284307 169.432616 97.831385c98.729354 56.997415 148.086154 85.511877 202.310892 85.527631 54.208985 0.015754 103.597292-28.451446 202.373908-85.385846l178.869169-103.124677c49.467077-28.514462 74.200615-42.755938 87.764677-66.260677 13.579815-23.504738 13.579815-52.050708 13.579815-109.126892v-110.276924a43.653908 43.653908 0 0 0-65.409969-37.856492L583.002585 669.569969c-24.607508 14.146954-36.911262 21.220431-50.412308 21.220431-13.501046 0-25.8048-7.057723-50.412308-21.188923l-248.249107-142.493539c-12.445538-7.136492-18.652554-10.712615-23.646524-11.342769a25.300677 25.300677 0 0 0-26.671261 15.517539c-1.890462 4.663138-1.858954 11.831138-1.795939 26.182892 0.063015 10.555077 0.094523 15.832615 1.071262 20.6848 2.205538 10.870154 7.939938 20.716308 16.289477 28.010338 3.717908 3.261046 8.302277 5.907692 17.439508 11.185231l265.405046 153.174646c24.686277 14.257231 37.021538 21.377969 50.569846 21.37797 13.548308 0 25.899323-7.120738 50.5856-21.346462l325.316923-187.518031c8.444062-4.867938 12.650338-7.294031 15.816862-5.466584 3.150769 1.827446 3.150769 6.695385 3.150769 16.431261v50.018462c0 14.272985 0 21.393723-3.387077 27.269907s-9.578338 9.452308-21.945108 16.573047l-268.319508 154.671261c-49.388308 28.482954-74.090338 42.708677-101.202707 42.692923-27.112369 0-51.798646-14.257231-101.1712-42.787446L180.397292 697.422769l-1.575384-0.913723a172.410092 172.410092 0 0 1-85.417354-147.991631V500.814769a94.365538 94.365538 0 0 1 47.040984-81.636431 83.117292 83.117292 0 0 1 83.22757-0.078769l207.919261 120.0128z" p-id="1673" fill="#2c2c2c"></path></svg>