<svg xmlns="http://www.w3.org/2000/svg" xmlns:xlink="http://www.w3.org/1999/xlink" viewBox="0 0 32 32" width="16" height="16" style="" filter="none">
    
    <g>
    <path d="M25.728 0h-19.424c-0 0-0.001 0-0.001 0-2.191 0-3.967 1.776-3.967 3.967 0 0 0 0.001 0 0.001v-0 24.064c0 0 0 0.001 0 0.001 0 2.191 1.776 3.967 3.967 3.967 0 0 0.001 0 0.001 0h19.424c2.176 0 3.968-1.792 3.968-3.968v-24.064c0-2.176-1.792-3.968-3.968-3.968zM26.368 25.856c-0.007 1.446-1.178 2.617-2.623 2.624h-15.457c-1.472 0-2.656-1.184-2.656-2.624v-19.712c0.008-1.464 1.192-2.648 2.655-2.656h15.457c1.44 0 2.624 1.216 2.624 2.656v19.712zM22.56 14.24h-13.12c-0.736 0-1.312 0.576-1.312 1.312v1.216c0 0.736 0.576 1.312 1.312 1.312h13.12c0.736 0 1.344-0.576 1.344-1.312v-1.216c0-0.736-0.608-1.312-1.344-1.312zM22.56 8.288h-13.12c-0.736 0-1.312 0.576-1.312 1.312v1.216c0 0.736 0.576 1.312 1.312 1.312h13.12c0.736 0 1.344-0.576 1.344-1.312v-1.216c0-0.736-0.608-1.312-1.344-1.312zM22.56 20.192h-13.12c-0.736 0-1.312 0.608-1.312 1.312v1.216c0 0.736 0.576 1.344 1.312 1.344h13.12c0.736 0 1.344-0.608 1.344-1.344v-1.216c0-0.704-0.608-1.312-1.344-1.312z" fill="rgba(51,51,51,1)"></path>
    </g>
  </svg>