<?xml version="1.0" standalone="no"?><!DOCTYPE svg PUBLIC "-//W3C//DTD SVG 1.1//EN" "http://www.w3.org/Graphics/SVG/1.1/DTD/svg11.dtd"><svg t="1704162545980" class="icon" viewBox="0 0 1280 1024" version="1.1" xmlns="http://www.w3.org/2000/svg" p-id="1175" xmlns:xlink="http://www.w3.org/1999/xlink" width="20" height="16"><path d="M361 148.524C161.626 148.524 0 311.266 0 512s161.638 363.476 361 363.476S722 712.746 722 512 560.382 148.524 361 148.524z m576.5 21.292c-99.69 0-180.49 153.238-180.49 342.19s80.812 342.2 180.502 342.2 180.502-153.238 180.502-342.2H1118c0-189.006-80.8-342.19-180.496-342.19z m279.012 35.642c-35.052 0-63.47 137.256-63.47 306.548s28.4 306.548 63.47 306.548S1280 681.262 1280 512c0-169.298-28.43-306.542-63.484-306.542z" p-id="1176" fill="#2c2c2c"></path></svg>