<svg xmlns="http://www.w3.org/2000/svg" xmlns:xlink="http://www.w3.org/1999/xlink" viewBox="0 0 32 32" width="26" height="26" style="" filter="none">
    
    <g>
    <path d="M12 1.333v2.667h8v-2.667h2.667v2.667h5.333c0.736 0 1.333 0.597 1.333 1.333v0 21.333c0 0.736-0.597 1.333-1.333 1.333v0h-24c-0.736 0-1.333-0.597-1.333-1.333v0-21.333c0-0.736 0.597-1.333 1.333-1.333v0h5.333v-2.667h2.667zM26.667 13.333h-21.333v12h21.333v-12zM20.048 14.848l1.885 1.885-6.6 6.6-4.715-4.715 1.888-1.885 2.828 2.829 4.715-4.715zM9.333 6.667h-4v4h21.333v-4h-4v1.333h-2.667v-1.333h-8v1.333h-2.667v-1.333z" fill="rgba(255,255,255,1)"></path>
    </g>
  </svg>