<svg xmlns="http://www.w3.org/2000/svg" xmlns:xlink="http://www.w3.org/1999/xlink" viewBox="0 0 32 32" width="80" height="80" style="" filter="none">
    
    <g>
    <path d="M28.335 14.341c0.070 0.497 0.11 1.072 0.11 1.656 0 0.001 0 0.002 0 0.004v-0c0 6.873-5.572 12.444-12.444 12.444s-12.444-5.572-12.444-12.444c0-6.873 5.572-12.444 12.444-12.444 1.932 0 3.762 0.44 5.394 1.227l-0.772 1.602c-1.429-0.688-2.998-1.050-4.622-1.050-5.891 0-10.667 4.776-10.667 10.667s4.776 10.667 10.667 10.667c5.891 0 10.667-4.776 10.667-10.667 0-0.48-0.032-0.955-0.094-1.424l1.762-0.235zM21.061 6.495c-0.491 0-0.889-0.398-0.889-0.889s0.398-0.889 0.889-0.889c0.491 0 0.889 0.398 0.889 0.889s-0.398 0.889-0.889 0.889zM27.457 15.413c-0.491 0-0.889-0.398-0.889-0.889s0.398-0.889 0.889-0.889 0.889 0.398 0.889 0.889c0 0.491-0.398 0.889-0.889 0.889zM10.856 14.645c-0.222-0.222-0.258-0.566-0.062-0.813l0.457-0.576c0.187-0.236 0.538-0.296 0.786-0.13l3.958 2.642c0.209 0.139 0.568 0.121 0.763-0.037l10.459-8.486c0.235-0.191 0.603-0.174 0.809 0.031l0.258 0.257c0.224 0.224 0.208 0.579-0.027 0.814l-11.226 11.209c-0.349 0.349-0.923 0.334-1.282-0.026l-4.894-4.886z" fill="rgba(252,202,0,1)"></path>
    </g>
  </svg>