<?xml version="1.0" standalone="no"?><!DOCTYPE svg PUBLIC "-//W3C//DTD SVG 1.1//EN" "http://www.w3.org/Graphics/SVG/1.1/DTD/svg11.dtd"><svg t="1678673493648" class="icon" viewBox="0 0 1024 1024" version="1.1" xmlns="http://www.w3.org/2000/svg" p-id="1248" xmlns:xlink="http://www.w3.org/1999/xlink" width="48" height="48"><path d="M512 85.333333a426.666667 426.666667 0 1 0 426.666667 426.666667A426.666667 426.666667 0 0 0 512 85.333333z m155.306667 517.546667l-135.68 157.866667a21.333333 21.333333 0 0 1-16.213334 7.253333h-6.826666a21.333333 21.333333 0 0 1-16.213334-7.253333l-135.68-157.866667a4.693333 4.693333 0 0 1 0-5.546667 3.84 3.84 0 0 1 5.546667 0l139.52 75.093334a21.76 21.76 0 0 0 20.48 0L661.76 597.333333a3.84 3.84 0 0 1 5.546667 0 4.693333 4.693333 0 0 1 0 5.546667z m5.12-85.333333L522.24 597.333333a21.76 21.76 0 0 1-20.48 0l-150.186667-78.933333a11.093333 11.093333 0 0 1-3.84-15.36l144.64-236.8A21.76 21.76 0 0 1 512 256a21.76 21.76 0 0 1 18.346667 10.24l144.64 236.8a11.093333 11.093333 0 0 1-2.56 15.36z" p-id="1249"></path></svg>