<?xml version="1.0" standalone="no"?><!DOCTYPE svg PUBLIC "-//W3C//DTD SVG 1.1//EN" "http://www.w3.org/Graphics/SVG/1.1/DTD/svg11.dtd"><svg t="1678365783589" class="icon" viewBox="0 0 1024 1024" version="1.1" xmlns="http://www.w3.org/2000/svg" p-id="1772" xmlns:xlink="http://www.w3.org/1999/xlink" width="48" height="48"><path d="M1024 195.072a452.762 452.762 0 0 1-102.4 109.056v26.112a614.554 614.554 0 0 1-162.304 413.184 551.936 551.936 0 0 1-435.712 184.32A581.632 581.632 0 0 1 0 834.048a290.182 290.182 0 0 0 51.2 2.56 417.331 417.331 0 0 0 262.656-90.624 212.582 212.582 0 0 1-122.368-43.008 204.8 204.8 0 0 1-75.264-102.4c13.005 2.662 26.163 4.403 39.424 5.12a217.549 217.549 0 0 0 56.832-7.68 198.246 198.246 0 0 1-120.832-71.68 204.954 204.954 0 0 1-50.176-134.144v-5.12a195.174 195.174 0 0 0 93.696 28.672 204.8 204.8 0 0 1-91.136-176.64 200.375 200.375 0 0 1 26.112-102.4A576.512 576.512 0 0 0 504.32 353.28a290.458 290.458 0 0 1-5.12-46.08A207.872 207.872 0 0 1 704.46 96.768h5.172a197.734 197.734 0 0 1 153.6 65.024 477.082 477.082 0 0 0 132.608-51.2 194.458 194.458 0 0 1-91.136 114.688A545.229 545.229 0 0 0 1024 195.072z" p-id="1773"></path></svg>