<?xml version="1.0" standalone="no"?><!DOCTYPE svg PUBLIC "-//W3C//DTD SVG 1.1//EN" "http://www.w3.org/Graphics/SVG/1.1/DTD/svg11.dtd"><svg t="1678674944980" class="icon" viewBox="0 0 1024 1024" version="1.1" xmlns="http://www.w3.org/2000/svg" p-id="1454" xmlns:xlink="http://www.w3.org/1999/xlink" width="48" height="48"><path d="M700.586667 745.856a32.213333 32.213333 0 0 1 0-45.226667 264.96 264.96 0 0 0 78.037333-188.501333 264.96 264.96 0 0 0-78.08-188.586667 32 32 0 0 1 45.226667-45.312 328.917333 328.917333 0 0 1 96.853333 233.898667 328.917333 328.917333 0 0 1-96.853333 233.813333 31.914667 31.914667 0 0 1-45.226667 0zM278.186667 745.856a330.666667 330.666667 0 0 1 0-467.626667 32 32 0 0 1 45.226666 45.226667 266.794667 266.794667 0 0 0 0 377.173333 32.213333 32.213333 0 0 1 0 45.226667 31.914667 31.914667 0 0 1-45.226666 0zM478.72 683.52a100.352 100.352 0 0 1-98.56-101.546667 32.213333 32.213333 0 0 1 32-32 32.213333 32.213333 0 0 1 32 32 35.968 35.968 0 0 0 34.56 37.546667h75.093333a27.605333 27.605333 0 0 0 26.026667-28.586667c0-20.053333-4.693333-22.613333-18.346667-27.306666l-119.893333-41.813334a84.48 84.48 0 0 1-61.013333-87.893333A91.178667 91.178667 0 0 1 470.613333 341.333333h75.093334a100.352 100.352 0 0 1 98.56 101.546667 32 32 0 0 1-64 0 35.968 35.968 0 0 0-34.56-37.546667h-75.093334a27.605333 27.605333 0 0 0-26.026666 28.586667c0 20.053333 4.693333 22.613333 18.346666 27.306667l119.893334 41.813333a84.48 84.48 0 0 1 61.013333 87.893333 91.989333 91.989333 0 0 1-90.026667 92.586667z" p-id="1455" fill="#2775ca"></path><path d="M480 691.2V332.8a32.213333 32.213333 0 0 1 32-32 32.213333 32.213333 0 0 1 32 32v358.4a32.213333 32.213333 0 0 1-32 32 32.213333 32.213333 0 0 1-32-32z" p-id="1456" fill="#2775ca"></path><path d="M512 970.666667A458.666667 458.666667 0 1 1 970.666667 512 459.178667 459.178667 0 0 1 512 970.666667z m0-853.333334A394.666667 394.666667 0 1 0 906.666667 512 395.093333 395.093333 0 0 0 512 117.333333z" p-id="1457" fill="#2775ca"></path></svg>