<svg xmlns="http://www.w3.org/2000/svg" xmlns:xlink="http://www.w3.org/1999/xlink" viewBox="0 0 32 32" width="24" height="24" style="" filter="none">
    
    <g>
    <path d="M16 21.333c-2.945 0-5.333-2.388-5.333-5.333s2.388-5.333 5.333-5.333 5.333 2.388 5.333 5.333-2.388 5.333-5.333 5.333zM28.444 19.556c-1.964 0-3.556-1.592-3.556-3.556s1.592-3.556 3.556-3.556c1.964 0 3.556 1.592 3.556 3.556s-1.592 3.556-3.556 3.556zM3.556 19.556c-1.964 0-3.556-1.592-3.556-3.556s1.592-3.556 3.556-3.556 3.556 1.592 3.556 3.556-1.592 3.556-3.556 3.556z" fill="rgba(255,255,255,1)"></path>
    </g>
  </svg>