<svg xmlns="http://www.w3.org/2000/svg" xmlns:xlink="http://www.w3.org/1999/xlink" viewBox="0 0 32 32" width="24" height="24" style="" filter="none">
    
    <g>
    <path d="M21.333 24.356v5.189c0 0.491-0.398 0.889-0.889 0.889-0.119 0-0.237-0.024-0.347-0.070l-3.404-1.442c-0.205-0.089-0.443-0.141-0.693-0.141s-0.489 0.052-0.705 0.145l0.012-0.004-3.404 1.442c-0.452 0.191-0.974-0.020-1.165-0.472-0.044-0.102-0.070-0.221-0.070-0.347 0 0 0 0 0-0v0-5.189c1.616 0.768 3.425 1.198 5.333 1.198s3.717-0.43 5.333-1.198zM16 2.667c5.891 0 10.667 4.776 10.667 10.667s-4.776 10.667-10.667 10.667c-5.891 0-10.667-4.776-10.667-10.667s4.776-10.667 10.667-10.667zM16 9.778c-1.964 0-3.556 1.592-3.556 3.556s1.592 3.556 3.556 3.556 3.556-1.592 3.556-3.556-1.592-3.556-3.556-3.556z" fill="rgba(51,51,51,1)"></path>
    </g>
  </svg>