<svg width="32" height="32" viewBox="0 0 32 32" fill="none" xmlns="http://www.w3.org/2000/svg">
<mask id="mask0_269_1183" style="mask-type:alpha" maskUnits="userSpaceOnUse" x="0" y="0" width="32" height="32">
<circle cx="16" cy="16" r="16" fill="#D08E38"/>
</mask>
<g mask="url(#mask0_269_1183)">
<path d="M19.438 14.6766L21.7695 10.6505L28.0541 20.6116L28.0571 22.5233L28.0366 9.3687C28.0217 9.04714 27.8539 8.753 27.5862 8.57951L16.2717 1.95633C16.0072 1.8239 15.6714 1.82543 15.4072 1.96052C15.3715 1.97862 15.3379 1.99845 15.306 2.02008L15.2665 2.0453L4.28406 8.52188L4.24149 8.54157C4.18669 8.5672 4.13124 8.5998 4.07932 8.63767C3.87104 8.7896 3.7328 9.01433 3.68807 9.26641C3.68133 9.30461 3.67636 9.34348 3.67407 9.38281L3.69134 20.1025L9.54503 10.8694C10.2821 9.64507 11.8877 9.25071 13.3784 9.27214L15.1279 9.31912L4.81957 26.1426L6.03471 26.8544L16.4664 9.33622L21.0773 9.31919L10.6725 27.2795L15.0085 29.8175L15.5265 30.1207C15.7456 30.2113 16.004 30.2159 16.225 30.1346L27.6984 23.3682L25.5049 24.6617L19.438 14.6766ZM20.3275 27.7151L15.9482 20.7204L18.6215 16.1039L24.373 25.3293L20.3275 27.7151Z" fill="#2D374B"/>
<path d="M15.9481 20.7203L20.3274 27.7151L24.373 25.3292L18.6214 16.1038L15.9481 20.7203Z" fill="#28A0F0"/>
<path d="M28.057 22.5233L28.054 20.6115L21.7695 10.6504L19.438 14.6765L25.5048 24.6616L27.6984 23.368C27.9135 23.1901 28.0437 22.9292 28.0574 22.6476L28.057 22.5233Z" fill="#28A0F0"/>
<path d="M1.7218 24.326L4.81942 26.1425L15.1277 9.31917L13.3782 9.27218C11.8875 9.25076 10.2818 9.64512 9.54482 10.8694L3.69113 20.1026L1.7218 23.1818V24.326Z" fill="white"/>
<path d="M21.0773 9.31921L16.4664 9.33625L6.03467 26.8544L9.68088 28.9908L10.6724 27.2795L21.0773 9.31921Z" fill="white"/>
<path d="M30 9.29505C29.9614 8.31374 29.4393 7.41541 28.6215 6.89241L17.1587 0.184053C16.3497 -0.230474 15.3391 -0.231006 14.5287 0.183787C14.4329 0.232965 3.38142 6.75552 3.38142 6.75552C3.22847 6.83019 3.08114 6.9191 2.94257 7.02005C2.21251 7.5525 1.76751 8.37995 1.7218 9.289V23.1819L3.69113 20.1026L3.67393 9.3829C3.67622 9.3437 3.68105 9.3051 3.68792 9.26704C3.73245 9.01482 3.87083 8.78982 4.07917 8.63776C4.13116 8.5999 15.3714 1.97872 15.4071 1.96055C15.6713 1.82552 16.0071 1.82393 16.2716 1.95636L27.5862 8.5794C27.8538 8.75289 28.0216 9.04703 28.0365 9.36859V22.6477C28.0228 22.9292 27.9134 23.1902 27.6983 23.3681L25.5047 24.6616L24.3729 25.3292L20.3274 27.715L16.2248 30.1345C16.0039 30.2158 15.7455 30.2112 15.5264 30.1205L10.6723 27.2794L9.68077 28.9908L14.0429 31.5467C14.1872 31.6302 14.3157 31.7042 14.4211 31.7644C14.5844 31.8576 14.6957 31.9199 14.735 31.9394C15.0451 32.0926 15.4912 32.1818 15.8931 32.1818C16.2617 32.1818 16.6211 32.1129 16.9612 31.9774L28.8775 24.9545C29.5614 24.4152 29.9638 23.6019 30 22.7209V9.29505Z" fill="#96BEDC"/>
</g>
</svg>
