<svg width="42" height="24" viewBox="0 0 42 24" fill="none" xmlns="http://www.w3.org/2000/svg">
<path d="M23.6425 12C23.6425 18.4446 18.453 23.6656 12.0556 23.6656C5.65826 23.6656 0.46875 18.4446 0.46875 12C0.46875 5.55539 5.65432 0.334412 12.0556 0.334412C18.4569 0.334412 23.6425 5.55539 23.6425 12ZM36.3547 12C36.3547 18.0669 33.7619 22.981 30.5592 22.981C27.3566 22.981 24.7678 18.0629 24.7678 12C24.7678 5.93703 27.3606 1.019 30.5592 1.019C33.7579 1.019 36.3547 5.93703 36.3547 12ZM41.552 12C41.552 17.4334 40.6392 21.84 39.514 21.84C38.3888 21.84 37.476 17.4334 37.476 12C37.476 6.56654 38.3888 2.15999 39.514 2.15999C40.6392 2.15999 41.552 6.56654 41.552 12Z" fill="black" fill-opacity="0.45"/>
</svg>
