<svg width="25" height="18" viewBox="0 0 25 18" fill="none" xmlns="http://www.w3.org/2000/svg">
<path d="M8.46873 8.30001C9.66873 8.30001 10.6687 9.20001 10.5687 10.3C10.5687 11.4 9.66873 12.3 8.46873 12.3C7.26873 12.3 6.36873 11.4 6.36873 10.3C6.36873 9.20001 7.26873 8.30001 8.46873 8.30001ZM16.0687 8.30001C17.2687 8.30001 18.1687 9.20001 18.1687 10.3C18.1687 11.4 17.2687 12.3 16.0687 12.3C14.8687 12.3 13.9687 11.4 13.9687 10.3C13.9687 9.20001 14.8687 8.30001 16.0687 8.30001ZM18.0687 17.7C22.5687 17.6 24.2687 14.5 24.2687 14.5C24.2687 7.80001 21.3687 2.40001 21.3687 2.40001C18.4687 0.200011 15.6687 0.200011 15.6687 0.200011L15.3687 0.500011C18.8687 1.60001 20.4687 3.10001 20.4687 3.10001C18.5687 2.00001 16.4687 1.40001 14.3687 1.10001C12.8687 1.00001 11.4687 1.00001 10.1687 1.20001H9.86873C9.06873 1.30001 7.36873 1.60001 5.16873 2.60001C4.46873 2.90001 3.96873 3.20001 3.96873 3.20001C3.96873 3.20001 5.66873 1.60001 9.36873 0.500011L9.16873 0.200011C9.16873 0.200011 6.36873 0.100011 3.46873 2.40001C3.46873 2.40001 0.568726 7.80001 0.568726 14.5C0.568726 14.5 2.26873 17.5 6.76873 17.7C6.76873 17.7 7.56873 16.8 8.16873 16C5.46873 15.1 4.46873 13.5 4.46873 13.5C4.46873 13.5 4.66873 13.6 5.06873 13.9L5.16873 14C5.26873 14 5.26873 14.1 5.36873 14.1C5.86873 14.4 6.36873 14.6 6.86873 14.8C7.66873 15.1 8.66873 15.5 9.86873 15.7C11.5687 16 13.3687 16 15.1687 15.7C16.1687 15.5 17.1687 15.2 18.1687 14.8C18.8687 14.5 19.6687 14.1 20.4687 13.6C20.4687 13.6 19.4687 15.3 16.7687 16.1C17.2687 16.8 18.0687 17.7 18.0687 17.7Z" fill="#1D1929" fill-opacity="0.45"/>
</svg>
