<svg width="23" height="22" viewBox="0 0 23 22" fill="none" xmlns="http://www.w3.org/2000/svg">
<path d="M11.5313 1.36433e-05C8.64471 -0.0293184 5.86463 1.08862 3.80198 3.10814C1.73934 5.12766 0.56291 7.8835 0.53125 10.77C0.542372 13.0512 1.27619 15.2701 2.62731 17.1082C3.97843 18.9462 5.87732 20.3087 8.05125 21C8.60125 21.1 8.80125 20.77 8.80125 20.48V18.65C5.74125 19.3 5.09125 17.21 5.09125 17.21C4.88755 16.5539 4.45448 15.9931 3.87125 15.63C2.87125 14.97 3.95125 14.98 3.95125 14.98C4.2969 15.0262 4.6276 15.1501 4.91856 15.3423C5.20951 15.5346 5.45317 15.7902 5.63125 16.09C5.94158 16.6281 6.45078 17.0229 7.04926 17.1894C7.64774 17.3558 8.28764 17.2806 8.83125 16.98C8.88716 16.4324 9.13514 15.9223 9.53125 15.54C7.09125 15.27 4.53125 14.35 4.53125 10.22C4.50943 9.14269 4.90749 8.09912 5.64125 7.31001C5.30708 6.38508 5.34654 5.36633 5.75125 4.47001C5.75125 4.47001 6.68125 4.18001 8.75125 5.57001C10.5531 5.08985 12.4494 5.08985 14.2513 5.57001C16.3513 4.18001 17.2513 4.47001 17.2513 4.47001C17.656 5.36633 17.6954 6.38508 17.3613 7.31001C18.1121 8.08466 18.5317 9.12123 18.5313 10.2C18.5313 14.34 15.9513 15.25 13.5313 15.52C13.7962 15.7773 14.0009 16.0901 14.1306 16.4359C14.2603 16.7817 14.3117 17.1519 14.2813 17.52V20.47C14.2813 20.82 14.4813 21.1 15.0313 20.99C17.199 20.2944 19.0915 18.9316 20.4384 17.0962C21.7854 15.2607 22.5179 13.0466 22.5313 10.77C22.4996 7.8835 21.3232 5.12766 19.2605 3.10814C17.1979 1.08862 14.4178 -0.0293184 11.5313 1.36433e-05Z" fill="#231F20" fill-opacity="0.45"/>
</svg>
