<svg width="25" height="22" viewBox="0 0 25 22" fill="none" xmlns="http://www.w3.org/2000/svg">
<path d="M22.0881 6.47643C22.0881 6.2513 22.0838 6.02871 22.0738 5.80764C23.0362 5.09056 23.8712 4.19293 24.5316 3.16575C23.6347 3.5693 22.6804 3.83039 21.7031 3.9396C22.7203 3.31362 23.5004 2.31248 23.869 1.11106C22.9166 1.6887 21.863 2.10166 20.7429 2.31684C19.8453 1.29555 18.5645 0.64506 17.1485 0.620888C14.4291 0.57593 12.2246 2.87399 12.2246 5.75308C12.2246 6.16231 12.2674 6.55919 12.3524 6.94243C8.25733 6.67891 4.62856 4.54734 2.20122 1.33399C1.77767 2.10386 1.53468 3.00362 1.53468 3.96784C1.53468 5.79156 2.40399 7.41246 3.72483 8.36894C2.91623 8.33236 2.15876 8.08746 1.49438 7.68593V7.7529C1.49438 10.3018 3.1922 12.4374 5.445 12.9356C5.032 13.0531 4.59639 13.1142 4.14838 13.112C3.8371 13.1104 3.52684 13.0765 3.22259 13.0107C3.84857 15.0994 5.66789 16.6254 7.82176 16.6763C6.13605 18.074 4.01257 18.9089 1.7071 18.9031C1.30959 18.9031 0.916783 18.8764 0.531677 18.828C2.71163 20.3234 5.29929 21.1943 8.08101 21.1943C17.1361 21.1965 22.0881 13.3148 22.0881 6.47643Z" fill="#231815" fill-opacity="0.45"/>
</svg>
