<svg width="21" height="18" viewBox="0 0 21 18" fill="none" xmlns="http://www.w3.org/2000/svg">
<path d="M0.592773 17.772V0.179993H20.2608C20.2728 0.419993 20.2848 0.635993 20.2848 0.851993C20.2848 4.97999 20.2728 9.10799 20.2968 13.236C20.2968 13.692 20.1528 13.992 19.8048 14.292C18.5328 15.336 17.3088 16.428 16.0368 17.472C15.8208 17.652 15.4968 17.796 15.2328 17.796C10.5168 17.82 5.78877 17.808 1.07277 17.808C0.940773 17.808 0.784773 17.796 0.592773 17.772ZM3.46077 9.94799H17.3328V7.99199H3.46077V9.94799ZM3.47277 6.01199H17.3448V4.04399H3.47277V6.01199ZM14.3928 11.94H3.48477V13.872H14.3928V11.94Z" fill="black" fill-opacity="0.45"/>
</svg>
