<svg width="36" height="36" viewBox="0 0 36 36" fill="none" xmlns="http://www.w3.org/2000/svg">
<g clip-path="url(#clip0_50_20733)">
<path d="M18 36C27.9414 36 36 27.9414 36 18C36 8.0586 27.9414 0 18 0C8.0586 0 0 8.0586 0 18C0 27.9414 8.0586 36 18 36Z" fill="#0052FF"/>
<path d="M18.1512 12.7206C20.2704 12.7206 21.9516 14.0274 22.59 15.9714H26.8596C26.0856 11.8158 22.6572 9 18.1854 9C13.107 9 9.1404 12.855 9.1404 18.0174C9.1404 23.1798 13.008 27 18.186 27C22.5576 27 26.0544 24.1842 26.829 19.9938H22.59C21.9846 21.9378 20.3052 23.2794 18.1842 23.2794C15.2586 23.2794 13.2078 21.0336 13.2078 18.0174C13.209 14.967 15.2268 12.7206 18.1518 12.7206H18.1512Z" fill="white"/>
</g>
<defs>
<clipPath id="clip0_50_20733">
<rect width="36" height="36" fill="white"/>
</clipPath>
</defs>
</svg>
