<svg width="36" height="36" viewBox="0 0 36 36" fill="none" xmlns="http://www.w3.org/2000/svg">
<g clip-path="url(#clip0_50_20723)">
<path d="M18 0C27.9411 0 36 8.05887 36 18C36 27.9411 27.9411 36 18 36C8.05887 36 0 27.9411 0 18C0 8.05887 8.05887 0 18 0Z" fill="#006FFF"/>
<path d="M11.2411 13.8877C14.8186 10.3708 20.6189 10.3708 24.1965 13.8877L24.627 14.3109C24.6695 14.3524 24.7032 14.4019 24.7263 14.4566C24.7493 14.5113 24.7612 14.57 24.7612 14.6293C24.7612 14.6887 24.7493 14.7474 24.7263 14.8021C24.7032 14.8567 24.6695 14.9063 24.627 14.9477L23.1542 16.3956C23.0647 16.4835 22.9197 16.4835 22.8303 16.3956L22.2378 15.8131C19.742 13.3597 15.6955 13.3597 13.1998 15.8131L12.5652 16.437C12.4758 16.5249 12.3307 16.5249 12.2413 16.437L10.7684 14.989C10.726 14.9476 10.6922 14.8981 10.6692 14.8434C10.6461 14.7887 10.6343 14.73 10.6343 14.6706C10.6343 14.6113 10.6461 14.5526 10.6692 14.4979C10.6922 14.4432 10.726 14.3937 10.7684 14.3523L11.241 13.8877L11.2411 13.8877ZM27.2425 16.882L28.5533 18.1707C28.5958 18.2121 28.6295 18.2616 28.6526 18.3163C28.6756 18.371 28.6875 18.4297 28.6875 18.4891C28.6875 18.5484 28.6756 18.6071 28.6526 18.6618C28.6295 18.7165 28.5958 18.766 28.5533 18.8075L22.6426 24.6181C22.4637 24.7939 22.1737 24.7939 21.9948 24.6181L17.7997 20.4942C17.7781 20.473 17.749 20.4612 17.7188 20.4612C17.6885 20.4612 17.6595 20.473 17.6378 20.4942L13.4428 24.6181C13.264 24.7939 12.9739 24.7939 12.795 24.6181L6.88416 18.8074C6.84169 18.766 6.80794 18.7165 6.7849 18.6618C6.76186 18.6071 6.74998 18.5484 6.74998 18.489C6.74998 18.4297 6.76186 18.3709 6.7849 18.3163C6.80794 18.2616 6.84169 18.2121 6.88416 18.1706L8.19503 16.882C8.3739 16.7061 8.66391 16.7061 8.84278 16.882L13.0379 21.006C13.0596 21.0272 13.0887 21.039 13.1189 21.039C13.1492 21.039 13.1782 21.0272 13.1999 21.006L17.3948 16.882C17.5737 16.7061 17.8637 16.7061 18.0426 16.882L22.2377 21.006C22.2594 21.0272 22.2884 21.039 22.3187 21.039C22.3489 21.039 22.378 21.0272 22.3997 21.006L26.5947 16.882C26.7736 16.7062 27.0636 16.7062 27.2425 16.882Z" fill="white"/>
</g>
<defs>
<clipPath id="clip0_50_20723">
<rect width="36" height="36" fill="white"/>
</clipPath>
</defs>
</svg>
